<svg width="320" height="81" viewBox="0 0 320 81" fill="none" xmlns="http://www.w3.org/2000/svg">
<path d="M150.8 80.5C151.664 80.5 152.4 79.7837 152.4 78.9V41.7C152.4 41.7 154.4 45.3 158 51.3L173.6 78.1C174.314 79.596 175.897 80.5 177.2 80.5H188V20.5H177.2C176.481 20.5 175.6 21.0977 175.6 22.1V59.7L168.4 46.9L154 22.5C153.299 21.2565 151.791 20.5 150.4 20.5H140V80.5H150.8Z" fill="white"/>
<path d="M290.4 37.3H295.6C296.925 37.3 298 36.2255 298 34.9V24.5H309.2V37.3H320V46.9H309.2V64.1C309.2 68.3 311.223 70.1 314.8 70.1H320V80.5H313.2C303.979 80.5 298 74.5286 298 64.5V46.9H290.4V37.3Z" fill="white"/>
<path d="M236.4 37.3V62.1C236.4 67.7015 234.297 72.4237 231.2 75.7C228.103 78.9763 223.826 80.5 218 80.5C212.174 80.5 207.497 78.9763 204.4 75.7C201.356 72.4237 199.2 67.7015 199.2 62.1V37.3H205.6C206.965 37.3 208.308 37.5488 209.2 38.5C210.092 39.3983 210.4 39.9261 210.4 41.3V62.1C210.4 65.3235 210.583 67.3147 212 68.9C213.417 70.4325 215.166 70.9 218 70.9C220.887 70.9 222.183 70.4325 223.6 68.9C225.017 67.3147 225.2 65.3235 225.2 62.1V41.3C225.2 39.9261 225.508 39.0512 226.4 38.1C227.184 37.2643 228.011 37.284 229.2 37.3C229.364 37.3022 229.834 37.3 230 37.3H236.4Z" fill="white"/>
<path d="M270.4 58.1L284 37.3H273.6C272.289 37.3 271.125 37.7703 270.4 38.9L264 48.5L258 39.3C257.275 38.1703 255.711 37.3 254.4 37.3H244.4L258 57.7L243.2 80.5H253.6C254.9 80.5 256.073 79.2149 256.8 78.1L264 67.3L271.6 78.5C272.327 79.6149 273.5 80.5 274.8 80.5H285.2L270.4 58.1Z" fill="white"/>
<path d="M67.2 80.5H111.6C113.017 80.5002 114.373 80.0022 115.6 79.3C116.827 78.5978 118.092 77.7163 118.8 76.5C119.508 75.2837 120.001 73.9039 120 72.4996C119.999 71.0953 119.509 69.716 118.8 68.5003L88.8 16.9C88.0919 15.684 87.2268 14.8021 86 14.1C84.7732 13.3979 83.0166 12.9 81.6 12.9C80.1834 12.9 78.8268 13.3979 77.6 14.1C76.3732 14.8021 75.5081 15.684 74.8 16.9L67.2 30.1L52 4.49906C51.2913 3.28314 50.4271 2.00197 49.2 1.3C47.9729 0.598035 46.6168 0.5 45.2 0.5C43.7832 0.5 42.4271 0.598035 41.2 1.3C39.9729 2.00197 38.7087 3.28314 38 4.49906L0.8 68.5003C0.0907916 69.716 0.000617247 71.0953 7.63971e-07 72.4996C-0.000615719 73.9039 0.0918593 75.2835 0.8 76.4998C1.50814 77.7161 2.77298 78.5978 4 79.3C5.22702 80.0022 6.58311 80.5002 8 80.5H36C47.0947 80.5 55.1701 75.5231 60.8 66.1L74.4 42.5L81.6 30.1L103.6 67.7H74.4L67.2 80.5ZM35.6 67.7H16L45.2 17.3L60 42.5L50.1965 59.5899C46.4577 65.704 42.1951 67.7 35.6 67.7Z" fill="#00DC82"/>
</svg>
